<svg id="图层_1" data-name="图层 1" xmlns="http://www.w3.org/2000/svg" viewBox="0 0 100 100">
	<defs>
		<style>.cls-1{fill:#fff278;}.cls-2{fill:none;}.cls-2,.cls-3{stroke:#fff;stroke-miterlimit:10;stroke-width:0.38px;}.cls-3{fill:#7c5913;}</style>
	</defs>
	<title>svg</title>
	<path class="cls-1" d="M86,40.7a8.5,8.5,0,0,1-5.6,7.1v.9a8.4,8.4,0,0,1-4.8,6.7,8,8,0,0,1-7.5-.5,5.6,5.6,0,0,1-7.6,8.3,3.9,3.9,0,0,1-1.9,4.3,5.2,5.2,0,0,1-3.8,1c-3.1-.5-5.4-3.2-6.7-6-1.6,2.7-6.1,2.9-7.8.3-.7,1.3-2.6.9-3.9.2-6.5,1.2-14-2.2-11.1-9.5C8.8,51,6.5,16.9,32.6,16c.1-1.9.1-4,1.2-5.7a4.9,4.9,0,0,1,5.2-2,3.5,3.5,0,0,1,2.5,3.9A1.8,1.8,0,0,1,43,11a1.2,1.2,0,0,1,1.2,1.3,12.8,12.8,0,0,1,6.4-4.5c1.1-.4,2.6-.4,3.3.5s0,2.5-1.2,3.5a20.1,20.1,0,0,1,6.4-2.6c2.3-.4,5.1-.2,6.5,1.7a3.3,3.3,0,0,1-.3,4.2A6.7,6.7,0,0,1,73,22.9c3.3-2.4,8.9.3,8.9,4.4a2.8,2.8,0,0,1-.4,5.5A8.5,8.5,0,0,1,86,40.7Z" />
	<path class="cls-2" d="M86,40.7a8.5,8.5,0,0,1-5.6,7.1v.9a8.4,8.4,0,0,1-4.8,6.7,8,8,0,0,1-7.5-.5,5.6,5.6,0,0,1-7.6,8.3,3.9,3.9,0,0,1-1.9,4.3,5.2,5.2,0,0,1-3.8,1c-3.1-.5-5.4-3.2-6.7-6-1.6,2.7-6.1,2.9-7.8.3-.7,1.3-2.6.9-3.9.2-6.5,1.2-14-2.2-11.1-9.5C8.8,51,6.5,16.9,32.6,16c.1-1.9.1-4,1.2-5.7a4.9,4.9,0,0,1,5.2-2,3.5,3.5,0,0,1,2.5,3.9A1.8,1.8,0,0,1,43,11a1.2,1.2,0,0,1,1.2,1.3,12.8,12.8,0,0,1,6.4-4.5c1.1-.4,2.6-.4,3.3.5s0,2.5-1.2,3.5a20.1,20.1,0,0,1,6.4-2.6c2.3-.4,5.1-.2,6.5,1.7a3.3,3.3,0,0,1-.3,4.2A6.7,6.7,0,0,1,73,22.9c3.3-2.4,8.9.3,8.9,4.4a2.8,2.8,0,0,1-.4,5.5A8.5,8.5,0,0,1,86,40.7Z" />
	<path class="cls-3" d="M59.7,47.5h.2c4.3-1.2,9.5-3.3,13.8-4.6l-18,4.5c-2.9.8-5.9,1.5-8.6,3.1a15,15,0,0,0-5.2,5.4c.7-3.7,1.5-7.3,2.2-11a3.5,3.5,0,0,1,.6-1.4c.4-.6,1.2-.8,1.8-1.1,4.1-1.5,5.7-4.3,8-9.7a17.8,17.8,0,0,1-9.3,9c.4-.2,1.9-7.4,2.3-8.4a31.2,31.2,0,0,1,4.7-7.6A23,23,0,0,0,44.6,39a14.6,14.6,0,0,0-2.1-8.2c2.1,8.6-2.5,17.3-5,25.8-3.3,11.3-2.8,23.2-2.3,34.9a3.8,3.8,0,0,0,4.1-1.4l2.3,1.8a11.1,11.1,0,0,1,.7-1.6,9.1,9.1,0,0,0,7.3,1.9c-4.7-6.9-6-15.5-7.1-23.8-.8-5.7-1.1-11.6,3.4-15.2s6.7-3.7,10.5-4.8,8-.3,10.1-.5l-3.7-.2Z" />
</svg>