<svg t="1623663067654" class="icon" viewBox="0 0 1024 1024" version="1.1" xmlns="http://www.w3.org/2000/svg" p-id="5866" xmlns:xlink="http://www.w3.org/1999/xlink" width="200" height="200">
    <defs>
        <style type="text/css"></style>
    </defs>
    <path d="M184.534 328.028c-4.422 0-8.078-3.578-8.078-8 0-4.42 3.5-7.998 7.906-7.998h0.172a8.004 8.004 0 0 1 7.998 7.998c0 4.422-3.592 8-7.998 8zM248.524 328.028c-4.42 0-8.076-3.578-8.076-8 0-4.42 3.5-7.998 7.904-7.998h0.172c4.406 0 8 3.578 8 7.998 0 4.422-3.594 8-8 8z" p-id="5867"></path>
    <path d="M360.024 312.03c-4.42 0-8-3.578-8-8 0-74.972-61.006-135.978-135.98-135.978s-135.98 61.006-135.98 135.978c0 4.422-3.578 8-8 8s-8-3.578-8-8c0-83.798 68.178-151.976 151.978-151.976s151.978 68.178 151.978 151.976a7.992 7.992 0 0 1-7.996 8z" p-id="5868"></path>
    <path d="M88.064 823.954a7.98 7.98 0 0 1-5.656-2.344C79.048 818.25 0.076 737.606 0.076 591.988c0-76.114 17.436-117.078 34.292-156.696 15.278-35.87 29.698-69.74 29.698-128.59 0-4.42 3.578-7.998 8-7.998s8 3.578 8 7.998c0 62.116-15.748 99.094-30.964 134.856-16.232 38.134-33.026 77.584-33.026 150.43 0 138.68 76.878 217.528 77.644 218.308a7.996 7.996 0 0 1-0.016 11.312 7.934 7.934 0 0 1-5.64 2.346zM344.026 823.954a7.94 7.94 0 0 1-5.64-2.344 8 8 0 0 1-0.016-11.312c0.766-0.782 77.644-79.628 77.644-218.308 0-72.848-16.794-112.296-33.026-150.43-15.216-35.76-30.964-72.74-30.964-134.856 0-4.42 3.578-7.998 8-7.998s8 3.578 8 7.998c0 58.85 14.42 92.72 29.7 128.59 16.856 39.62 34.292 80.584 34.292 156.696 0 145.618-78.972 226.262-82.332 229.622a7.99 7.99 0 0 1-5.658 2.342z" p-id="5869"></path>
    <path d="M360.024 839.95H72.066c-4.42 0-8-3.578-8-7.996 0-4.422 3.578-8 8-8h287.958a7.996 7.996 0 1 1 0 15.996z" p-id="5870"></path>
    <path d="M72.066 871.946c-13.232 0-23.996-10.766-23.996-23.996s10.764-23.996 23.996-23.996a7.996 7.996 0 1 1 0 15.996c-4.406 0-8 3.594-8 8s3.594 8 8 8c4.42 0 8 3.578 8 7.996 0 4.422-3.578 8-8 8zM360.04 871.946a7.996 7.996 0 1 1 0-15.996c4.406 0 8-3.594 8-8s-3.594-8-8-8c-4.42 0-8-3.578-8-7.996 0-4.422 3.578-8 8-8 13.232 0 23.998 10.766 23.998 23.996s-10.766 23.996-23.998 23.996z" p-id="5871"></path>
    <path d="M360.04 871.946H72.066a7.996 7.996 0 1 1 0-15.996H360.04a7.998 7.998 0 1 1 0 15.996zM216.044 408.014c-57.334 0-103.984-46.648-103.984-103.984 0-57.334 46.65-103.984 103.984-103.984s103.984 46.65 103.984 103.984c0.002 57.336-46.648 103.984-103.984 103.984z m0-191.97c-48.508 0-87.988 39.478-87.988 87.986s39.478 87.988 87.988 87.988 87.988-39.478 87.988-87.988c0-48.508-39.478-87.986-87.988-87.986z" p-id="5872"></path>
    <path d="M312.03 312.03c-37.588 0-72.364-20.374-90.752-53.164a8.008 8.008 0 0 1 3.078-10.89 8.01 8.01 0 0 1 10.888 3.078c15.544 27.746 44.978 44.978 76.786 44.978 4.422 0 8 3.578 8 7.998 0 4.422-3.578 8-8 8z" p-id="5873"></path>
    <path d="M120.06 312.03c-4.422 0-8-3.578-8-8a7.994 7.994 0 0 1 8-7.998c55.118 0 104.406-32.838 125.558-83.676 1.704-4.076 6.36-5.966 10.468-4.31 4.078 1.702 6 6.388 4.312 10.466-23.652 56.804-78.738 93.518-140.338 93.518zM216.044 368.022c-13.904 0-23.996-6.734-23.996-15.998 0-4.422 3.578-8 8-8a8.006 8.006 0 0 1 7.81 6.266c1.172 0.718 4.016 1.734 8.186 1.734 4.42 0 8 3.576 8 7.998s-3.578 8-8 8z" p-id="5874"></path>
    <path d="M216.044 368.022c-4.42 0-8-3.578-8-8s3.578-7.998 8-7.998c4.17 0 7.014-1.016 8.186-1.734a8.008 8.008 0 0 1 7.81-6.266c4.422 0 8 3.578 8 8 0.002 9.264-10.09 15.998-23.996 15.998zM216.044 472.006c-99.782 0-133.746-65.616-135.136-68.412a7.984 7.984 0 0 1 3.562-10.702c3.982-2.03 8.748-0.39 10.732 3.514 1.234 2.438 31.338 59.602 120.84 59.602 4.42 0 8 3.578 8 7.998a7.992 7.992 0 0 1-7.998 8z" p-id="5875"></path>
    <path d="M216.044 472.006c-4.42 0-8-3.578-8-8a7.994 7.994 0 0 1 8-7.998c90.002 0 120.528-58.976 120.826-59.57a8.028 8.028 0 0 1 10.734-3.578 8.01 8.01 0 0 1 3.578 10.734c-1.392 2.796-35.354 68.412-135.138 68.412z" p-id="5876"></path>
    <path d="M184.05 520a8 8 0 0 1-5.656-13.656l31.996-31.996a8 8 0 0 1 11.31 11.312l-31.996 31.996A7.968 7.968 0 0 1 184.05 520z" p-id="5877"></path>
    <path d="M184.05 520a7.994 7.994 0 0 1-7.998-8v-31.996c0-4.422 3.576-8 7.998-8s8 3.578 8 8V512a7.996 7.996 0 0 1-8 8zM248.04 520a7.98 7.98 0 0 1-5.656-2.344l-31.996-31.996a8 8 0 0 1 11.31-11.312l31.996 31.996A8 8 0 0 1 248.04 520z" p-id="5878"></path>
    <path d="M248.04 520a7.994 7.994 0 0 1-7.998-8v-31.996c0-4.422 3.578-8 7.998-8 4.422 0 8 3.578 8 8V512c0 4.422-3.578 8-8 8zM264.038 615.984a8 8 0 0 1-3.282-15.296c76.238-34.304 107.578-107.06 107.89-107.794a8.03 8.03 0 0 1 10.482-4.266 8.01 8.01 0 0 1 4.266 10.482c-1.36 3.218-34.168 79.3-116.076 116.17a7.82 7.82 0 0 1-3.28 0.704zM264.022 663.976a8 8 0 0 1-7.874-6.688 7.984 7.984 0 0 1 6.578-9.2c91.548-15.266 123.356-45.496 123.668-45.792a8.014 8.014 0 0 1 11.296 0.078 7.986 7.986 0 0 1-0.016 11.266c-1.376 1.376-34.918 33.996-132.324 50.226-0.436 0.08-0.89 0.11-1.328 0.11zM168.052 615.984a7.82 7.82 0 0 1-3.28-0.704c-81.91-36.872-114.718-112.952-116.076-116.17a7.992 7.992 0 0 1 4.264-10.466c4.046-1.734 8.75 0.188 10.482 4.25 0.312 0.734 31.886 73.598 107.89 107.794a8 8 0 0 1-3.28 15.296zM168.068 663.976c-0.438 0-0.89-0.032-1.328-0.11-97.406-16.23-130.948-48.852-132.324-50.226a8 8 0 0 1 0-11.312c3.124-3.106 8.186-3.122 11.28-0.032 0.592 0.578 32.526 30.606 123.668 45.792a7.982 7.982 0 0 1 6.578 9.2 8 8 0 0 1-7.874 6.688zM216.044 679.972c-22.06 0-39.994-17.934-39.994-39.992s17.934-39.992 39.994-39.992 39.994 17.934 39.994 39.992-17.934 39.992-39.994 39.992z m0-63.988c-13.232 0-23.996 10.762-23.996 23.996 0 13.23 10.764 23.996 23.996 23.996s23.998-10.766 23.998-23.996c0-13.234-10.764-23.996-23.998-23.996zM88.064 743.964a7.994 7.994 0 0 1-5.656-13.652l15.998-16a8 8 0 1 1 11.312 11.312l-15.998 15.996a7.968 7.968 0 0 1-5.656 2.344z" p-id="5879"></path>
    <path d="M120.06 743.964a7.976 7.976 0 0 1-5.656-2.344l-15.998-15.996a8 8 0 1 1 11.312-11.312l15.998 16a7.994 7.994 0 0 1-5.656 13.652z" p-id="5880"></path>
    <path d="M120.06 743.964a7.994 7.994 0 0 1-5.656-13.652l15.998-16a8 8 0 0 1 11.31 11.312l-15.998 15.996a7.964 7.964 0 0 1-5.654 2.344z" p-id="5881"></path>
    <path d="M152.054 743.964a7.98 7.98 0 0 1-5.656-2.344l-15.998-15.996a8 8 0 0 1 11.31-11.312l15.998 16a7.994 7.994 0 0 1 0 11.308 7.96 7.96 0 0 1-5.654 2.344z" p-id="5882"></path>
    <path d="M152.054 743.964a7.994 7.994 0 0 1-5.656-13.652l15.998-16a8 8 0 0 1 11.31 11.312l-15.998 15.996a7.96 7.96 0 0 1-5.654 2.344z" p-id="5883"></path>
    <path d="M184.05 743.964a7.976 7.976 0 0 1-5.656-2.344l-15.998-15.996a8 8 0 0 1 11.31-11.312l15.998 16a7.994 7.994 0 0 1 0 11.308 7.96 7.96 0 0 1-5.654 2.344z" p-id="5884"></path>
    <path d="M184.05 743.964a7.994 7.994 0 0 1-5.656-13.652l15.998-16a8 8 0 0 1 11.31 11.312l-15.998 15.996a7.96 7.96 0 0 1-5.654 2.344z" p-id="5885"></path>
    <path d="M216.044 743.964a7.98 7.98 0 0 1-5.656-2.344l-15.998-15.996a8 8 0 0 1 11.31-11.312l15.998 16a7.994 7.994 0 0 1 0 11.308 7.956 7.956 0 0 1-5.654 2.344z" p-id="5886"></path>
    <path d="M216.044 743.964a7.994 7.994 0 0 1-5.656-13.652l15.998-16a8 8 0 0 1 11.31 11.312l-15.998 15.996a7.956 7.956 0 0 1-5.654 2.344z" p-id="5887"></path>
    <path d="M248.04 743.964a7.98 7.98 0 0 1-5.656-2.344l-15.998-15.996a8 8 0 0 1 11.31-11.312l15.998 16a7.994 7.994 0 0 1 0 11.308 7.96 7.96 0 0 1-5.654 2.344z" p-id="5888"></path>
    <path d="M248.04 743.964a7.994 7.994 0 0 1-5.656-13.652l15.998-16a8 8 0 1 1 11.312 11.312l-15.998 15.996a7.968 7.968 0 0 1-5.656 2.344z" p-id="5889"></path>
    <path d="M280.036 743.964a7.976 7.976 0 0 1-5.656-2.344l-15.998-15.996a8 8 0 1 1 11.312-11.312l15.998 16a7.994 7.994 0 0 1-5.656 13.652z" p-id="5890"></path>
    <path d="M280.036 743.964a7.994 7.994 0 0 1-5.656-13.652l15.998-16a8 8 0 0 1 11.31 11.312l-15.998 15.996a7.964 7.964 0 0 1-5.654 2.344z" p-id="5891"></path>
    <path d="M312.03 743.964a7.972 7.972 0 0 1-5.654-2.344l-15.998-15.996a8 8 0 0 1 11.31-11.312l15.998 16a7.994 7.994 0 0 1-5.656 13.652z" p-id="5892"></path>
    <path d="M312.03 743.964a7.994 7.994 0 0 1-5.654-13.652l15.998-16a8 8 0 0 1 11.31 11.312l-15.998 15.996a7.964 7.964 0 0 1-5.656 2.344z" p-id="5893"></path>
    <path d="M344.026 743.964a7.976 7.976 0 0 1-5.656-2.344l-15.998-15.996a8 8 0 0 1 11.31-11.312l15.998 16a7.994 7.994 0 0 1 0 11.308 7.96 7.96 0 0 1-5.654 2.344zM120.06 791.958a7.994 7.994 0 0 1-5.656-13.652l15.998-16a8 8 0 0 1 11.31 11.312l-15.998 15.996a7.972 7.972 0 0 1-5.654 2.344z" p-id="5894"></path>
    <path d="M152.054 791.958a7.98 7.98 0 0 1-5.656-2.344l-15.998-15.996a8 8 0 0 1 11.31-11.312l15.998 16a7.994 7.994 0 0 1-5.654 13.652z" p-id="5895"></path>
    <path d="M152.054 791.958a7.994 7.994 0 0 1-5.656-13.652l15.998-16a8 8 0 0 1 11.31 11.312l-15.998 15.996a7.968 7.968 0 0 1-5.654 2.344z" p-id="5896"></path>
    <path d="M184.05 791.958a7.976 7.976 0 0 1-5.656-2.344l-15.998-15.996a8 8 0 0 1 11.31-11.312l15.998 16a7.994 7.994 0 0 1-5.654 13.652z" p-id="5897"></path>
    <path d="M184.05 791.958a7.994 7.994 0 0 1-5.656-13.652l15.998-16a8 8 0 0 1 11.31 11.312l-15.998 15.996a7.968 7.968 0 0 1-5.654 2.344z" p-id="5898"></path>
    <path d="M216.044 791.958a7.98 7.98 0 0 1-5.656-2.344l-15.998-15.996a8 8 0 0 1 11.31-11.312l15.998 16a7.994 7.994 0 0 1-5.654 13.652z" p-id="5899"></path>
    <path d="M216.044 791.958a7.994 7.994 0 0 1-5.656-13.652l15.998-16a8 8 0 0 1 11.31 11.312l-15.998 15.996a7.966 7.966 0 0 1-5.654 2.344z" p-id="5900"></path>
    <path d="M248.04 791.958a7.98 7.98 0 0 1-5.656-2.344l-15.998-15.996a8 8 0 0 1 11.31-11.312l15.998 16a7.994 7.994 0 0 1-5.654 13.652z" p-id="5901"></path>
    <path d="M248.04 791.958a7.994 7.994 0 0 1-5.656-13.652l15.998-16a8 8 0 1 1 11.312 11.312l-15.998 15.996a7.976 7.976 0 0 1-5.656 2.344z" p-id="5902"></path>
    <path d="M280.036 791.958a7.976 7.976 0 0 1-5.656-2.344l-15.998-15.996a8 8 0 1 1 11.312-11.312l15.998 16a7.994 7.994 0 0 1-5.656 13.652z" p-id="5903"></path>
    <path d="M280.036 791.958a7.994 7.994 0 0 1-5.656-13.652l15.998-16a8 8 0 0 1 11.31 11.312l-15.998 15.996a7.972 7.972 0 0 1-5.654 2.344z" p-id="5904"></path>
    <path d="M312.03 791.958a7.972 7.972 0 0 1-5.654-2.344l-15.998-15.996a8 8 0 0 1 11.31-11.312l15.998 16a7.994 7.994 0 0 1-5.656 13.652z" p-id="5905"></path>
    <path d="M616.468 520c-4.422 0-8.078-3.578-8.078-8 0-4.42 3.5-8 7.906-8h0.172c4.406 0 8 3.578 8 8 0 4.422-3.592 8-8 8z" p-id="5906"></path>
    <path d="M648.464 520c-4.422 0-8.078-3.578-8.078-8 0-4.42 3.5-8 7.906-8h0.172c4.406 0 8 3.578 8 8 0 4.422-3.592 8-8 8z" p-id="5907"></path>
    <path d="M727.968 504c-4.422 0-8-3.578-8-8 0-48.508-39.476-87.988-87.984-87.988-48.512 0-87.988 39.478-87.988 87.988 0 4.42-3.578 8-8 8S528 500.422 528 496c0-57.334 46.648-103.984 103.984-103.984 57.332 0 103.984 46.65 103.984 103.984 0 4.422-3.578 8-8 8z" p-id="5908"></path>
    <path d="M551.98 855.95c-1.86 0-3.734-0.656-5.266-1.984-2.718-2.39-66.71-59.68-66.71-161.352 0-53.102 13.216-81.628 25.98-109.204C517.312 558.976 528 535.918 528 496.002c0-4.42 3.574-8 7.996-8s8 3.578 8 8c0 43.432-11.938 69.208-23.48 94.126-12.062 26.012-24.512 52.898-24.512 102.484 0 94.172 60.662 148.79 61.27 149.336a7.99 7.99 0 0 1 0.718 11.282 7.982 7.982 0 0 1-6.012 2.72z" p-id="5909"></path>
    <path d="M711.984 855.95a7.972 7.972 0 0 1-6.012-2.718 7.99 7.99 0 0 1 0.718-11.282c0.61-0.546 61.27-55.164 61.27-149.336 0-49.586-12.45-76.472-24.512-102.484-11.542-24.918-23.48-50.696-23.48-94.126 0-4.42 3.578-8 8-8s8 3.578 8 8c0 39.916 10.684 62.974 22.012 87.408 12.762 27.574 25.98 56.102 25.98 109.204 0 101.672-63.992 158.96-66.71 161.352a8.04 8.04 0 0 1-5.266 1.982z" p-id="5910"></path>
    <path d="M727.968 871.946h-191.972a7.992 7.992 0 0 1-7.996-8 7.99 7.99 0 0 1 7.996-7.996h191.972c4.422 0 8 3.578 8 7.996 0 4.422-3.578 8-8 8z" p-id="5911"></path>
    <path d="M631.984 567.992c-39.7 0-72.008-32.308-72.008-72.006 0-39.68 32.308-71.974 72.008-71.974 39.696 0 71.988 32.292 71.988 71.974 0 39.698-32.292 72.006-71.988 72.006z m0-127.982c-30.886 0-56.008 25.106-56.008 55.976 0 30.884 25.122 56.006 56.008 56.006 30.868 0 55.988-25.122 55.988-56.006 0-30.87-25.12-55.976-55.988-55.976z" p-id="5912"></path>
    <path d="M695.942 502.032h-0.266c-26.168-0.86-49.446-15.014-62.274-37.87a8.012 8.012 0 0 1 3.078-10.888 8.014 8.014 0 0 1 10.89 3.078c10.046 17.918 28.308 29.01 48.836 29.682a8.02 8.02 0 0 1 7.734 8.266 8 8 0 0 1-7.998 7.732z" p-id="5913"></path>
    <path d="M568.008 502.032a8 8 0 0 1-0.172-15.998c35.09-0.75 66.036-20.98 80.77-52.772 1.876-4.014 6.672-5.75 10.622-3.906a8.016 8.016 0 0 1 3.906 10.624c-17.34 37.384-53.726 61.162-94.954 62.052h-0.172z" p-id="5914"></path>
    <path d="M631.984 615.984c-71.352 0-87.52-52.992-87.676-53.54a8.012 8.012 0 0 1 5.468-9.906c4.188-1.234 8.636 1.204 9.886 5.422 0.516 1.718 13.376 42.028 72.32 42.028 4.418 0 7.996 3.574 7.996 7.996s-3.576 8-7.994 8z" p-id="5915"></path>
    <path d="M631.984 615.984c-4.422 0-8-3.578-8-8s3.578-7.996 8-7.996c58.926 0 71.8-40.308 72.316-42.028 1.266-4.218 5.782-6.688 9.934-5.376a7.978 7.978 0 0 1 5.422 9.876c-0.156 0.532-16.34 53.524-87.672 53.524z" p-id="5916"></path>
    <path d="M663.976 695.536a7.982 7.982 0 0 1-7.292-4.718 8 8 0 0 1 4.012-10.578c50.368-22.652 59.132-56.66 59.492-58.098 1.046-4.282 5.422-6.844 9.61-5.922 4.282 1.016 6.954 5.266 5.968 9.546-0.406 1.746-10.454 42.946-68.508 69.066a7.86 7.86 0 0 1-3.282 0.704z" p-id="5917"></path>
    <path d="M663.96 727.968a8 8 0 0 1-7.872-6.688 7.988 7.988 0 0 1 6.574-9.204c60.398-10.074 74.566-28.872 74.692-29.058 2.546-3.516 7.5-4.438 11.062-2 3.578 2.438 4.624 7.218 2.266 10.86-1.61 2.5-17.714 24.7-85.394 35.98-0.436 0.08-0.89 0.11-1.328 0.11z" p-id="5918"></path>
    <path d="M599.988 695.972a7.836 7.836 0 0 1-3.282-0.704c-58.07-26.136-68.118-67.758-68.504-69.52a7.972 7.972 0 0 1 6.028-9.562c4.344-1.046 8.562 1.718 9.562 6 0.406 1.672 9.296 35.914 59.476 58.488a8 8 0 0 1 4.012 10.578 7.972 7.972 0 0 1-7.292 4.72z" p-id="5919"></path>
    <path d="M600.004 727.968c-0.438 0-0.89-0.032-1.328-0.11-67.632-11.282-83.738-33.028-85.346-35.48a7.99 7.99 0 0 1 2.264-11.078 7.97 7.97 0 0 1 10.984 2.11c0.5 0.64 15.09 18.718 74.722 28.668a7.984 7.984 0 0 1 6.574 9.204 7.994 7.994 0 0 1-7.87 6.686z" p-id="5920"></path>
    <path d="M631.984 743.528c-17.64 0-31.996-14.356-31.996-31.996 0-17.636 14.356-31.996 31.996-31.996 17.636 0 31.992 14.36 31.992 31.996 0 17.64-14.354 31.996-31.992 31.996z m0-47.992c-8.828 0-16 7.172-16 15.996 0 8.828 7.172 16 16 16 8.824 0 15.996-7.172 15.996-16 0-8.824-7.172-15.996-15.996-15.996z" p-id="5921"></path>
    <path d="M711.968 791.958h-159.972c-4.422 0-8-3.578-8-8a7.994 7.994 0 0 1 8-7.996h159.972a7.996 7.996 0 1 1 0 15.996z" p-id="5922"></path>
    <path d="M679.976 823.954h-95.988c-4.418 0-7.996-3.578-7.996-8s3.578-7.996 7.996-7.996h95.988c4.422 0 7.996 3.574 7.996 7.996s-3.574 8-7.996 8z" p-id="5923"></path>
    <path d="M615.984 647.98c-4.422 0-8-3.578-8-8v-15.996c0-4.422 3.578-8 8-8s8 3.578 8 8v15.996c0 4.422-3.578 8-8 8z" p-id="5924"></path>
    <path d="M647.98 647.98c-4.422 0-8-3.578-8-8v-15.996c0-4.422 3.578-8 8-8s8 3.578 8 8v15.996c0 4.422-3.578 8-8 8z" p-id="5925"></path>
    <path d="M991.976 655.976c-4.422 0-8-3.578-8-7.996 0-26.464-21.528-47.992-47.992-47.992s-47.992 21.528-47.992 47.992c0 4.418-3.578 7.996-8 7.996s-8-3.578-8-7.996c0-35.292 28.7-63.992 63.992-63.992s63.988 28.7 63.988 63.992a7.99 7.99 0 0 1-7.996 7.996z" p-id="5926"></path>
    <path d="M887.93 855.95a7.988 7.988 0 0 1-5.75-2.454c-1.39-1.454-34.23-36.214-34.23-94.144 0-30.21 7.032-47.586 13.234-62.926 5.562-13.75 10.808-26.746 10.808-48.446 0-4.422 3.578-8 8-8s8 3.578 8 8c0 24.824-6.094 39.882-11.984 54.446-6.204 15.34-12.058 29.836-12.058 56.926 0 51.226 29.48 82.754 29.774 83.066 3.032 3.188 2.938 8.25-0.246 11.296a8.024 8.024 0 0 1-5.548 2.236zM983.946 855.95c-2 0-3.984-0.75-5.546-2.234-3.188-3.046-3.282-8.11-0.25-11.296 0.296-0.312 29.778-31.84 29.778-83.066 0-27.106-5.844-41.602-12.012-56.942-5.876-14.562-11.938-29.622-11.938-54.43 0-4.422 3.578-8 8-8s7.996 3.578 7.996 8c0 21.714 5.234 34.696 10.782 48.46 6.172 15.324 13.168 32.714 13.168 62.91 0 57.93-32.836 92.692-34.226 94.144a7.996 7.996 0 0 1-5.752 2.454z" p-id="5927"></path>
    <path d="M935.938 711.968c-42.308 0-47.398-20.184-47.852-22.48a8.024 8.024 0 0 1 6.34-9.376c4.14-0.766 8.25 1.796 9.266 5.906 0.328 0.766 4.844 9.954 32.246 9.954 4.422 0 8 3.578 8 8a7.994 7.994 0 0 1-8 7.996z" p-id="5928"></path>
    <path d="M935.938 711.968c-4.422 0-8-3.578-8-7.996 0-4.422 3.578-8 8-8 28.45 0 32.23-9.906 32.262-10 0.844-4.328 5.012-6.796 9.308-6.11 4.328 0.844 7.11 5.282 6.282 9.624-0.454 2.3-5.548 22.482-47.852 22.482zM911.942 759.96c-1.406 0-2.812-0.36-4.11-1.14-28.48-17.028-34.856-34.43-35.48-36.352a7.986 7.986 0 0 1 5.094-10.094 7.966 7.966 0 0 1 10.062 5c0.204 0.516 5.546 13.964 28.542 27.73a7.994 7.994 0 0 1-4.108 14.856zM911.942 791.958c-0.766 0-1.562-0.11-2.344-0.344-21.402-6.562-34.214-17.042-34.762-17.496a7.994 7.994 0 0 1-1.062-11.234 8.02 8.02 0 0 1 11.266-1.094c0.11 0.094 11.074 8.968 29.246 14.516a8.02 8.02 0 0 1 5.308 9.996 8.02 8.02 0 0 1-7.652 5.656zM959.934 759.96a7.992 7.992 0 0 1-6.86-3.886 7.986 7.986 0 0 1 2.75-10.968c23.324-13.968 28.496-27.606 28.542-27.746 1.5-4.11 6-6.328 10.156-4.89 4.122 1.422 6.372 5.844 4.996 10-0.624 1.922-6.996 19.324-35.476 36.352a7.9 7.9 0 0 1-4.108 1.138zM959.934 791.958a8.028 8.028 0 0 1-7.656-5.656 8.02 8.02 0 0 1 5.312-9.996c18.386-5.61 29.122-14.422 29.23-14.5a8 8 0 0 1 10.22 12.312c-0.546 0.454-13.36 10.934-34.762 17.496a8.204 8.204 0 0 1-2.344 0.344zM991.93 871.946h-111.984c-4.422 0-8-3.578-8-8a7.994 7.994 0 0 1 8-7.996h111.984a7.99 7.99 0 0 1 7.996 7.996c0 4.422-3.574 8-7.996 8zM935.938 679.972c-17.636 0-31.996-14.356-31.996-31.992 0-17.64 14.36-31.996 31.996-31.996s31.996 14.356 31.996 31.996c0 17.638-14.36 31.992-31.996 31.992z m0-47.992c-8.828 0-16 7.172-16 16 0 8.824 7.172 15.996 16 15.996s15.996-7.172 15.996-15.996c0-8.828-7.168-16-15.996-16z" p-id="5929"></path>
    <path d="M935.938 791.958c-13.234 0-23.996-10.762-23.996-23.996 0-13.23 10.762-23.996 23.996-23.996 13.23 0 23.996 10.766 23.996 23.996 0 13.234-10.766 23.996-23.996 23.996z m0-31.998c-4.406 0-8 3.594-8 8s3.594 8 8 8 8-3.594 8-8-3.594-8-8-8zM959.934 839.95h-47.992c-4.422 0-8-3.578-8-7.996 0-4.422 3.578-8 8-8h47.992c4.422 0 8 3.578 8 8a7.994 7.994 0 0 1-8 7.996z" p-id="5930"></path>
</svg>