<svg t="1623663778676" class="icon" viewBox="0 0 1024 1024" version="1.1" xmlns="http://www.w3.org/2000/svg" p-id="19804" xmlns:xlink="http://www.w3.org/1999/xlink" width="200" height="200">
    <defs>
        <style type="text/css"></style>
    </defs>
    <path d="M696.106667 505.386667c-1.493333-30.506667-11.52-72.106667 2.56-100.053334l145.066666-245.546666-99.626666-66.773334-171.733334 227.626667c-20.48 23.68-62.72 30.293333-91.52 40.533333-44.8 15.786667-82.56 47.146667-109.013333 86.613334L149.333333 780.8c-13.866667 20.906667-8.32 49.066667 12.373334 62.933333l209.92 140.586667c20.906667 13.866667 49.066667 8.32 62.933333-12.373333l222.72-332.8c26.666667-39.466667 41.386667-86.4 38.826667-133.76z" fill="#BDDCF4" p-id="19805"></path>
    <path d="M205.866667 818.56l222.72-332.8c26.453333-39.466667 64.213333-70.826667 109.013333-86.613333 28.8-10.24 71.04-16.853333 91.52-40.533334l171.733333-227.626666-56.533333-37.76-171.733333 227.626666c-20.48 23.68-62.72 30.293333-91.52 40.533334-44.8 15.786667-82.56 47.146667-109.013334 86.613333L149.333333 780.8c-13.866667 20.906667-8.32 49.066667 12.373334 62.933333l56.533333 37.76c-20.693333-13.866667-26.24-42.026667-12.373333-62.933333z" fill="#CBE6F7" p-id="19806"></path>
    <path d="M873.6 80.426667L806.4 35.2c-8.96-5.973333-20.906667-3.626667-26.88 5.333333l-35.2 52.48 99.626667 66.773334L878.933333 107.306667c5.973333-8.96 3.626667-20.906667-5.333333-26.88zM359.255467 467.1232l285.4208 191.069867-144.192 215.396266L215.061333 682.517333z" fill="#D85959" p-id="19807"></path>
    <path d="M322.8224 521.5488l285.4208 191.069867-71.2064 106.368-285.418667-191.069867z" fill="#F9EEDD" p-id="19808"></path>
    <path d="M364.727467 603.178667l51.234133 34.299733-23.3792 34.922667-51.234133-34.2976zM465.8048 670.8864l51.234133 34.2976-23.3792 34.922667-51.234133-34.295467z" fill="#8B6B9D" p-id="19809"></path>
</svg>