<svg t="1623665857068" class="icon" viewBox="0 0 1024 1024" version="1.1" xmlns="http://www.w3.org/2000/svg" p-id="31990" xmlns:xlink="http://www.w3.org/1999/xlink" width="200" height="200">
    <defs>
        <style type="text/css"></style>
    </defs>
    <path d="M368.8 396.768c10.16-20.288 16.112-44.64 16.112-70.88 0-37.76-12.48-71.36-32-94.784V133.888h-128v97.216c-19.52 23.424-32 57.024-32 94.784 0 26.24 5.952 50.592 16.128 70.88-47.776 27.648-80.128 78.976-80.128 138.144v398.976a32 32 0 0 0 32 32h256a32 32 0 0 0 32-32V534.912c0-59.168-32.352-110.496-80.128-138.144z" fill="#58B76C" p-id="31991"></path>
    <path d="M224.912 133.888h128v32h-128z" fill="#3F853F" p-id="31992"></path>
    <path d="M512.912 581.888v384h384v-384h-384z" fill="#CDDCF0" p-id="31993"></path>
    <path d="M128 677.888h320v256H128z" fill="#4A7B48" p-id="31994"></path>
    <path d="M224.912 69.888h128v64h-128z" fill="#AB7136" p-id="31995"></path>
    <path d="M288.912 69.888h64v64h-64z" fill="#653B21" p-id="31996"></path>
    <path d="M682.832 860.736l-64.768-64.768a31.264 31.264 0 0 1 0-44.192l64.704-64.736a31.232 31.232 0 0 1 44.192 0l64.8 64.768c12.192 12.192 12.224 32 0 44.192l-64.736 64.736c-12.224 12.192-32 12.192-44.192 0z" fill="#FFFFFF" p-id="31997"></path>
    <path d="M800.912 773.888c0-8-3.04-16-9.152-22.112l-64.8-64.768c-6.08-6.048-14.08-9.12-22.048-9.12v96h96z" fill="#F7FCFE" p-id="31998"></path>
    <path d="M544.912 773.888h320v128h-320z" fill="#653B21" p-id="31999"></path>
    <path d="M608.912 773.888c0 8 3.04 16 9.152 22.08l64.768 64.768c6.08 6.112 14.08 9.152 22.08 9.152s16-3.04 22.112-9.152l64.736-64.736c6.128-6.112 9.152-14.112 9.152-22.112h-192z" fill="#8C7063" p-id="32000"></path>
    <path d="M192.912 581.888h192v288h-192z" fill="#FFFFFF" p-id="32001"></path>
    <path d="M224.912 709.888h128v32h-128z" fill="#ACACAC" p-id="32002"></path>
    <path d="M288.912 645.888m-32 0a32 32 0 1 0 64 0 32 32 0 1 0-64 0Z" fill="#ACACAC" p-id="32003"></path>
    <path d="M224.912 773.888h128v32h-128z" fill="#ACACAC" p-id="32004"></path>
</svg>